<svg width="24" height="20" viewBox="0 0 24 20" fill="none" xmlns="http://www.w3.org/2000/svg">
<g id="naver_blog_logo">
<path id="Vector" d="M3.04158 0.0727119C2.8471 0.11371 2.59883 0.179306 2.48296 0.216204C1.50228 0.552385 0.58781 1.43794 0.231951 2.40958C-0.0163225 3.08605 0.000229087 2.68837 0.000229087 8.23127V13.2945L0.0954006 13.6389C0.418156 14.8114 1.20849 15.7257 2.29676 16.1807C2.95882 16.4595 2.73538 16.4431 6.24845 16.4595L9.43462 16.4759L10.3036 17.878C11.4581 19.7393 11.5284 19.8418 11.7105 19.9279C11.9794 20.055 12.2111 20.014 12.4429 19.8049C12.5008 19.7475 13.0015 18.9768 13.556 18.0871L14.5615 16.4759L17.7063 16.4636C20.8262 16.4513 20.8593 16.4472 21.1862 16.357C22.5683 15.9716 23.5614 14.9508 23.9297 13.5282C23.9959 13.274 24 12.8599 24 8.23127V3.20904L23.9048 2.86056C23.5366 1.48304 22.5062 0.474489 21.0662 0.0809116C20.8345 0.0194149 20.1145 0.0112152 12.1036 0.00301552C3.79468 -0.00518417 3.37675 -0.00108337 3.04158 0.0727119ZM8.59463 4.78745C9.18635 4.96784 9.596 5.40652 9.83186 6.11988C9.92703 6.40277 9.93117 6.43146 9.94358 8.62894L9.956 10.8551H9.25256H8.54911L8.5367 8.83393C8.52429 6.84554 8.52015 6.81274 8.42912 6.58316C8.32981 6.33307 8.10222 6.09938 7.96567 6.09938C7.88705 6.09938 7.88291 6.06658 7.88291 5.38192V4.66446L8.12291 4.68906C8.25119 4.70546 8.46636 4.75056 8.59463 4.78745ZM4.07605 5.95589C4.07605 6.57496 4.0926 7.08333 4.10916 7.08333C4.12985 7.08333 4.18364 7.03823 4.23743 6.98493C4.35329 6.86194 4.70915 6.68565 4.99053 6.61185C5.79742 6.39867 6.67051 6.81684 7.07189 7.6081C7.63464 8.71504 7.40706 9.96957 6.52982 10.5927C6.13259 10.8756 5.74776 10.9986 5.25535 10.9986C4.80846 10.9986 4.59743 10.9166 4.28295 10.6255L4.07605 10.4328V10.646V10.8551H3.33123H2.58641V7.84179V4.82845H3.33123H4.07605V5.95589ZM19.0635 6.59546C19.3325 6.65285 19.56 6.76355 19.7918 6.94804L19.9656 7.08743V6.90294V6.71435H20.669H21.3724V9.00202C21.3724 10.9084 21.36 11.3266 21.3104 11.5275C21.0497 12.5114 20.3214 13.0403 19.1504 13.0977L18.6828 13.1223V12.4581V11.7981H18.9849C19.6469 11.794 19.9656 11.4537 19.9656 10.7444V10.4451L19.7504 10.6091C19.44 10.8428 19.1214 10.9371 18.6663 10.9371C18.029 10.9371 17.5945 10.7649 17.2345 10.3754C16.4732 9.54729 16.4649 7.96478 17.218 7.16532C17.6442 6.71435 18.447 6.46836 19.0635 6.59546ZM14.4001 6.70615C15.1863 6.97264 15.6663 7.51381 15.8525 8.34606C15.9311 8.69454 15.9146 9.18241 15.8111 9.5063C15.538 10.3795 14.6732 10.9535 13.5518 11.0068C12.7201 11.0478 12.087 10.8428 11.6236 10.3877C10.8539 9.62519 10.7712 8.26406 11.4415 7.43181C11.7187 7.08743 12.2649 6.76765 12.778 6.65285C13.1629 6.56676 14.0732 6.59546 14.4001 6.70615Z" fill="#9FA4A9"/>
<path id="Vector_2" d="M4.59326 7.97303C3.88982 8.33791 3.88154 9.29725 4.58498 9.64574C5.06084 9.87942 5.64015 9.67443 5.85946 9.19476C6.06221 8.75608 5.86359 8.19851 5.42911 7.98943C5.20981 7.88283 4.77947 7.87463 4.59326 7.97303Z" fill="#9FA4A9"/>
<path id="Vector_3" d="M18.6497 7.98941C18.087 8.2682 17.9794 9.01026 18.4346 9.46123C18.7408 9.76462 19.1214 9.83021 19.5063 9.64162C20.2056 9.29724 20.2014 8.33789 19.5021 7.98121C19.287 7.87052 18.8856 7.87462 18.6497 7.98941Z" fill="#9FA4A9"/>
<path id="Vector_4" d="M13.1795 7.91558C12.9147 7.98938 12.7036 8.16157 12.5795 8.40756C12.3933 8.78064 12.4595 9.16192 12.7657 9.4653C13.5146 10.2074 14.7312 9.33411 14.2553 8.39526C14.0526 8.00578 13.5974 7.80489 13.1795 7.91558Z" fill="#9FA4A9"/>
</g>
</svg>
