<svg width="20" height="20" viewBox="0 0 20 20" fill="none" xmlns="http://www.w3.org/2000/svg">
<g id="Group 2">
<path id="Vector" d="M6.26031 0.0810795C4.67694 0.309704 3.30011 0.995577 2.15274 2.1387C1.05127 3.23038 0.357117 4.53926 0.0989602 6.03104C-0.0329867 6.7855 -0.0329867 13.2098 0.0989602 13.97C0.56938 16.6964 2.6289 18.9655 5.31373 19.7199C6.1972 19.9657 6.69057 20 9.96056 20C11.7791 20 13.2707 19.9771 13.5748 19.9371C16.7185 19.5713 19.2255 17.2851 19.8967 14.1701C19.9885 13.73 20 13.347 20 9.99767C20 6.64832 19.9885 6.26538 19.8967 5.82527C19.2255 2.71026 16.7185 0.424017 13.5748 0.058218C12.829 -0.0332317 6.89136 -0.0103703 6.26031 0.0810795Z" fill="#5E2AFF"/>
<path id="Vector_2" d="M6.26031 0.0810795C4.67694 0.309704 3.30011 0.995577 2.15274 2.1387C1.05127 3.23038 0.357117 4.53926 0.0989602 6.03104C-0.0329867 6.7855 -0.0329867 13.2098 0.0989602 13.97C0.56938 16.6964 2.6289 18.9655 5.31373 19.7199C6.1972 19.9657 6.69057 20 9.96056 20C11.7791 20 13.2707 19.9771 13.5748 19.9371C16.7185 19.5713 19.2255 17.2851 19.8967 14.1701C19.9885 13.73 20 13.347 20 9.99767C20 6.64832 19.9885 6.26538 19.8967 5.82527C19.2255 2.71026 16.7185 0.424017 13.5748 0.0582161C12.829 -0.0332336 6.89136 -0.0103703 6.26031 0.0810795ZM11.0506 4.07629C11.9053 4.23062 12.6282 4.52211 13.3395 4.99079C14.6762 5.88243 15.5884 7.2256 15.9269 8.80882C16.1793 9.97481 16.0703 11.0265 15.5597 12.4097C15.3761 12.9012 15.3991 13.387 15.64 14.353C15.8695 15.2503 15.8638 15.4046 15.5999 15.6276C15.3761 15.8162 15.2442 15.8105 14.2574 15.5704C13.81 15.4618 13.3166 15.3704 13.1732 15.3704C13.0183 15.3704 12.6339 15.4618 12.2266 15.599C11.3317 15.8962 10.7867 15.9991 10.0466 15.9991C8.39441 15.9991 6.90283 15.3818 5.74973 14.2272C3.95984 12.444 3.47795 9.7519 4.53926 7.49423C5.38831 5.69381 6.94873 4.4821 8.92793 4.08201C9.40982 3.97913 10.5056 3.97913 11.0506 4.07629Z" fill="white"/>
<path id="Vector_3" d="M7.13231 10.5178C6.80531 10.7121 6.51847 10.9179 6.48404 10.9808C6.39226 11.1522 6.68483 11.6209 7.20688 12.1468C7.58551 12.524 7.76336 12.6554 8.21083 12.8726C9.40409 13.4556 10.626 13.4613 11.7963 12.8898C12.4044 12.5926 12.9609 12.1125 13.3109 11.5923C13.678 11.0436 13.6608 10.9922 12.9322 10.5464C12.588 10.3406 12.2553 10.1691 12.1864 10.1691C12.0947 10.1691 11.9914 10.2663 11.8308 10.5064C11.5554 10.9065 11.1481 11.2208 10.6949 11.3809C10.431 11.4723 10.2646 11.4895 9.90319 11.4723C9.1574 11.4323 8.57225 11.0951 8.17641 10.4721C8.03299 10.2549 7.9412 10.1691 7.84941 10.1691C7.77483 10.1691 7.45357 10.3292 7.13231 10.5178Z" fill="white"/>
</g>
</svg>
