<svg width="59" height="16" viewBox="0 0 59 16" fill="none" xmlns="http://www.w3.org/2000/svg">
<path d="M11.8 13.312L11.784 6.096C10.792 6.128 9.8 6.192 8.824 6.272C8.808 6.576 8.488 6.816 8.248 6.816C7.784 6.816 7.528 6.432 7.528 6.016C7.56 5.52 7.576 5.024 7.576 4.016C7.576 2.896 7.544 2.256 7.352 1.664C7.352 1.488 7.4 1.408 7.592 1.408C7.72 1.408 8.072 1.472 8.6 1.712C9.752 1.632 10.536 1.584 11.32 1.52C11.544 1.504 11.672 1.456 11.928 1.28C12.248 1.36 12.712 1.584 13.048 1.856C13.384 2.128 13.496 2.272 13.496 2.464C13.496 2.592 13.464 2.672 13.304 2.912C13.192 3.088 13.16 3.312 13.16 3.776V6.224C13.16 8.592 13.208 10.736 13.24 13.104C13.24 13.792 13.208 14.208 12.984 14.768C12.824 15.168 12.552 15.312 12.392 15.312C12.232 15.312 11.896 15.2 11.576 14.928C11.128 14.56 10.552 13.968 10.248 13.456C10.2 13.376 10.168 13.296 10.168 13.232C10.168 13.152 10.248 13.088 10.376 13.088L10.488 13.104C10.872 13.168 11.352 13.264 11.8 13.312ZM8.872 2.624L8.856 3.536C9.832 3.456 10.792 3.392 11.768 3.328V2.448C10.872 2.48 10.008 2.528 8.872 2.624ZM11.784 5.184L11.768 4.208C10.792 4.224 9.816 4.32 8.84 4.4V5.36C9.816 5.28 10.792 5.232 11.784 5.184ZM2.136 6.512L2.008 13.792C1.992 14.592 1.704 15.056 1.304 15.056C0.936 15.056 0.536 14.56 0.536 13.904C0.6 13.088 0.664 11.968 0.712 10.896C0.808 8.816 0.856 6.672 0.856 4.72C0.856 3.248 0.776 2.368 0.616 1.84C0.616 1.696 0.68 1.632 0.824 1.632C1.064 1.632 1.656 1.808 1.944 1.984C3 1.872 3.576 1.84 4.44 1.776C4.632 1.76 4.76 1.712 5.016 1.616C5.208 1.648 5.352 1.68 5.848 2.048C6.152 2.272 6.296 2.416 6.296 2.56C6.296 2.672 6.28 2.736 6.184 2.944C6.088 3.12 6.088 3.2 6.072 3.6C6.056 4.192 6.04 5.552 6.024 5.904C5.992 6.56 5.784 6.832 5.336 6.832C5.128 6.832 4.872 6.672 4.744 6.304C3.864 6.32 3 6.416 2.136 6.512ZM2.168 4.64L2.152 5.584C3.032 5.504 3.928 5.44 4.808 5.392V4.416C3.912 4.464 3.032 4.528 2.168 4.64ZM2.2 2.896L2.184 3.76C3.048 3.68 3.928 3.6 4.792 3.552V2.688C3.832 2.736 3.048 2.816 2.2 2.896ZM8.888 10.384L8.904 13.2C8.904 13.968 8.776 14.352 8.408 14.352C7.976 14.352 7.672 13.824 7.576 13.008C7.656 12.768 7.704 12.4 7.704 12.144V10.432C7.128 10.464 6.616 10.496 6.104 10.528C6.024 11.072 5.896 11.472 5.752 11.888C5.352 12.848 4.744 13.552 3.88 14.064C3.784 14.128 3.704 14.144 3.624 14.144C3.512 14.144 3.432 14.096 3.432 13.984C3.432 13.904 3.48 13.792 3.608 13.648C4.088 13.12 4.504 12.304 4.744 11.488C4.824 11.216 4.888 10.944 4.92 10.64C4.408 10.688 3.944 10.736 3.512 10.8C3.352 10.8 3.208 10.768 3.08 10.64C2.648 10.16 2.616 10.144 2.616 10.016C2.616 9.952 2.648 9.888 2.872 9.872C3.624 9.808 4.344 9.744 5 9.68V9.168C5 8.768 4.936 8.512 4.856 8.32C4.584 8.352 4.328 8.368 4.088 8.4C3.928 8.4 3.8 8.336 3.592 8.096C3.384 7.856 3.256 7.712 3.256 7.632C3.256 7.552 3.304 7.504 3.416 7.504C5.624 7.376 7.384 7.264 8.456 7.136C8.76 7.104 8.984 7.024 9.208 6.88C9.784 6.944 10.504 7.28 10.504 7.632C10.504 7.888 10.312 7.968 9.832 7.984C9.48 8 9.08 8.016 8.664 8.032C8.92 8.256 9.032 8.416 9.032 8.544C9.032 8.64 9 8.736 8.968 8.832C8.92 9.024 8.904 9.088 8.888 9.408H9.032C9.496 9.392 9.688 9.312 9.976 9.152C10.808 9.296 11.32 9.568 11.32 9.968C11.32 10.272 11.048 10.368 10.44 10.368C10.008 10.368 9.464 10.368 8.888 10.384ZM7.704 9.488V8.912C7.704 8.544 7.704 8.368 7.608 8.096C7.032 8.144 6.456 8.192 5.864 8.24C6.168 8.416 6.312 8.576 6.312 8.72C6.312 8.848 6.296 8.944 6.264 9.04C6.216 9.184 6.216 9.328 6.2 9.584C6.68 9.552 7.096 9.52 7.704 9.488ZM19.88 14.64L19.8 14.656C19.64 14.656 19.512 14.56 19.512 14.416C19.512 14.336 19.56 14.256 19.672 14.208C20.744 13.712 21.672 13.088 22.392 12.4C22.248 12.256 22.12 12.144 21.992 12.032C21.576 11.664 21.368 11.456 21.032 11.328C20.872 11.264 20.744 11.168 20.744 11.088C20.744 11.008 20.792 10.896 20.952 10.88C21.128 10.864 21.288 10.864 21.416 10.864C21.496 10.864 21.656 10.864 21.736 10.88C21.848 10.896 21.96 10.912 22.216 11.12C22.488 11.344 22.76 11.552 23.016 11.728C23.416 11.264 23.736 10.768 23.944 10.288C23.24 10.336 22.456 10.416 21.368 10.56C21.256 10.56 21.192 10.528 21.08 10.4C20.952 10.24 20.776 9.984 20.696 9.84C20.68 9.808 20.68 9.776 20.68 9.744C20.68 9.664 20.744 9.584 20.872 9.584C22.216 9.52 23.064 9.456 23.944 9.344C24.2 9.312 24.28 9.264 24.52 9.104C24.744 9.152 25.048 9.328 25.448 9.696C25.624 9.872 25.784 10.064 25.784 10.176C25.784 10.304 25.704 10.416 25.576 10.512C25.464 10.608 25.336 10.736 25.176 10.976C24.856 11.488 24.488 11.968 24.04 12.432C24.824 12.992 25.304 13.232 25.784 13.44C26.408 13.712 26.84 13.904 27.416 14.176C27.64 14.288 27.736 14.368 27.736 14.48C27.736 14.576 27.624 14.656 27.4 14.704C26.872 14.816 26.184 14.928 25.592 14.928C25.368 14.928 25.192 14.848 24.968 14.656C24.376 14.128 23.784 13.616 23.24 13.136C22.408 13.76 21.336 14.288 19.88 14.64ZM23.24 7.648V6.576C22.984 6.592 22.712 6.624 22.376 6.656C22.264 7.936 21.656 8.864 20.872 9.216C20.792 9.248 20.712 9.264 20.648 9.264C20.536 9.264 20.472 9.216 20.472 9.12C20.472 9.056 20.488 8.992 20.536 8.912C20.904 8.304 21.08 7.616 21.08 6.704C21.08 6.272 21.048 6.096 20.92 5.744C20.92 5.648 20.968 5.568 21.048 5.568C21.192 5.568 21.48 5.616 21.96 5.872C22.424 5.808 22.76 5.776 23.192 5.712C23.4 5.68 23.512 5.648 23.72 5.488C23.944 5.52 24.104 5.584 24.472 5.84C24.728 6.016 24.84 6.128 24.84 6.256C24.84 6.368 24.776 6.464 24.68 6.56C24.584 6.656 24.52 6.784 24.504 6.928C24.472 7.152 24.472 7.328 24.472 7.472C24.472 7.648 24.552 7.744 24.824 7.744C25.192 7.744 25.288 7.728 25.368 7.696C25.48 7.648 25.512 7.584 25.56 7.424C25.592 7.328 25.624 7.168 25.64 7.056C25.656 6.896 25.704 6.832 25.784 6.832C25.88 6.832 26.152 7.024 26.392 7.376C26.6 7.68 26.696 7.856 26.696 8.064C26.696 8.416 26.52 8.576 26.184 8.672C25.864 8.768 25.48 8.816 24.76 8.816C23.528 8.816 23.24 8.384 23.24 7.648ZM16.152 3.2H16.248C17.32 3.328 18.184 3.808 18.216 4.464C18.856 3.84 19.368 3.168 19.864 2.368C19.064 2.544 18.264 2.736 17.304 2.944C17.208 2.944 17.112 2.912 17 2.8C16.568 2.368 16.392 2.08 16.392 1.984C16.392 1.872 16.504 1.856 16.664 1.84C17.832 1.712 18.808 1.568 19.56 1.424C20.056 1.328 20.328 1.152 20.68 0.751999C20.936 0.799999 21.256 0.912 21.624 1.136C21.96 1.344 22.152 1.536 22.152 1.696C22.152 1.84 22.12 1.936 21.912 2.096C22.216 2.384 22.536 2.672 22.856 2.928C23.256 2.448 23.496 2.16 23.656 1.872C23.752 1.712 23.768 1.552 23.768 1.424C23.768 1.152 23.832 1.072 23.96 1.072C24.152 1.072 24.376 1.136 24.888 1.456C25.256 1.68 25.304 1.872 25.304 1.984C25.304 2.08 25.208 2.24 25.08 2.336C24.504 2.736 23.96 3.04 23.336 3.296C23.704 3.568 24.072 3.824 24.456 4.064C24.872 3.68 25.144 3.376 25.4 3.024C25.48 2.896 25.496 2.784 25.496 2.656C25.496 2.368 25.56 2.304 25.688 2.304C25.88 2.304 26.152 2.4 26.648 2.8C26.936 3.04 26.984 3.184 26.984 3.296C26.984 3.392 26.92 3.536 26.792 3.616C26.28 3.92 25.688 4.192 25.032 4.416C25.576 4.736 26.232 5.056 26.808 5.296C27.768 5.712 28.536 6 28.888 6.192C29.128 6.32 29.176 6.416 29.176 6.528C29.176 6.672 29.08 6.72 28.872 6.768C28.12 6.912 27.32 7.024 26.648 7.024C26.184 7.024 26.008 6.896 25.704 6.608C24.296 5.28 22.872 4.256 21.368 2.768C20.328 4.24 19.4 5.2 18.136 5.984C18.344 5.968 18.536 5.936 18.712 5.92C19 5.888 19.128 5.808 19.24 5.696C19.608 5.808 20.088 5.984 20.312 6.16C20.44 6.272 20.488 6.352 20.488 6.464C20.488 6.56 20.456 6.624 20.36 6.736C20.28 6.816 20.232 6.912 20.184 7.072C20.12 7.296 20.056 7.648 19.976 8.064C20.168 8.208 20.248 8.352 20.248 8.512C20.248 8.736 20.088 8.768 19.864 8.784C19.192 8.832 18.376 8.912 17.688 9.008C17.768 9.104 17.864 9.216 17.864 9.344C17.864 9.488 17.832 9.632 17.592 10.256C18.152 10.192 18.456 10.16 18.68 10.112C18.856 10.08 18.968 9.984 19.128 9.856C19.368 9.936 19.736 10.096 20.024 10.304C20.36 10.544 20.456 10.656 20.456 10.8C20.456 10.912 20.392 11.008 20.312 11.104C20.216 11.216 20.152 11.472 20.088 11.744C19.912 12.544 19.608 13.456 19.32 14.032C19 14.672 18.344 15.12 18.072 15.12C17.848 15.12 17.544 14.96 17.256 14.64C16.968 14.32 16.648 13.872 16.472 13.504C16.44 13.44 16.424 13.392 16.424 13.344C16.424 13.232 16.52 13.168 16.648 13.168C16.68 13.168 16.728 13.168 16.776 13.184C17.144 13.296 17.704 13.488 17.928 13.488C18.056 13.488 18.136 13.424 18.2 13.264C18.44 12.736 18.744 11.744 18.856 10.992C18.248 11.056 17.768 11.12 17.336 11.216C17.24 11.232 17.048 11.28 16.92 11.36C16.84 11.408 16.776 11.44 16.68 11.44C16.6 11.44 16.408 11.232 16.248 10.944C16.072 10.624 16.056 10.512 16.056 10.432C16.056 10.352 16.12 10.304 16.216 10.256C16.344 10.192 16.44 10.176 16.552 9.968C16.712 9.68 16.824 9.392 16.904 9.12C16.824 9.104 16.728 9.056 16.648 8.96C16.52 8.8 16.376 8.624 16.296 8.48C16.28 8.448 16.264 8.4 16.264 8.368C16.264 8.304 16.312 8.256 16.408 8.24C17.048 8.16 18.072 8.064 18.792 8C18.84 7.552 18.872 7.12 18.904 6.736C18.536 6.784 18.12 6.864 17.656 6.944C17.56 6.944 17.48 6.928 17.352 6.768C17.288 6.672 17.224 6.608 17.192 6.528C16.44 6.912 15.576 7.28 14.552 7.664C14.504 7.68 14.456 7.696 14.408 7.696C14.264 7.696 14.168 7.616 14.168 7.504C14.168 7.424 14.216 7.328 14.344 7.248C15.656 6.48 16.648 5.824 17.448 5.152C17.24 5.104 17.048 4.944 16.872 4.72C16.472 4.192 16.232 3.888 15.976 3.632C15.896 3.552 15.864 3.472 15.864 3.392C15.864 3.28 15.944 3.2 16.152 3.2ZM33.032 13.2C32.968 13.216 32.904 13.232 32.84 13.232C32.44 13.232 32.136 12.928 32.008 12.144C32.072 11.888 32.104 11.344 32.104 10.304C32.104 8.96 32.072 8.704 31.928 8.384C31.848 8.224 31.816 8.144 31.816 8.064C31.816 7.968 31.88 7.92 32.008 7.92C32.168 7.92 32.552 8 32.984 8.176C34.76 8 36.008 7.888 37.496 7.792C37.784 7.776 38.072 7.728 38.328 7.6C38.632 7.648 38.888 7.776 39.336 8.08C39.704 8.368 39.768 8.48 39.768 8.592C39.768 8.704 39.752 8.784 39.608 8.944C39.464 9.12 39.416 9.312 39.416 9.648C39.416 10.464 39.416 11.536 39.4 12.192C39.384 12.992 39.128 13.104 38.776 13.104C38.584 13.104 38.328 12.912 38.152 12.64C36.536 12.672 34.904 12.736 33.288 12.864C33.688 13.056 33.96 13.248 34.248 13.504C34.456 13.696 34.568 13.84 34.568 13.968C34.568 14.112 34.488 14.208 34.232 14.336C33.096 14.88 31.8 15.264 30.2 15.376C30.008 15.376 29.912 15.296 29.912 15.184C29.912 15.072 29.944 15.008 30.12 14.944C31.176 14.592 32.008 14.176 32.792 13.648C32.984 13.504 33.032 13.312 33.032 13.2ZM33.32 11.52V12.064C34.92 11.936 36.504 11.856 38.104 11.808V11.264C37.816 11.248 37.592 11.248 37.24 11.248C36.36 11.264 34.968 11.36 33.32 11.52ZM33.32 10.24V10.752C34.616 10.64 35.672 10.576 36.616 10.512C36.952 10.496 37.16 10.432 37.304 10.352C37.576 10.4 37.88 10.496 38.12 10.608V9.952C37.832 9.936 37.464 9.936 37.144 9.936C36.328 9.952 34.936 10.064 33.32 10.24ZM33.32 8.96V9.488C34.616 9.376 35.88 9.296 36.792 9.248C37.08 9.232 37.176 9.2 37.4 9.088C37.624 9.152 37.864 9.216 38.136 9.344V8.608C36.472 8.656 35.128 8.768 33.32 8.96ZM32.056 6.272L32.072 6.208C31.496 6.272 30.904 6.32 30.344 6.384C30.168 6.384 30.104 6.368 29.976 6.256C29.576 5.872 29.496 5.776 29.496 5.696C29.496 5.632 29.56 5.6 29.752 5.584C30.616 5.504 31.48 5.44 32.312 5.376C32.344 5.232 32.376 5.072 32.408 4.896C32.472 4.592 32.504 4.384 32.504 4.24C32.504 4.144 32.488 4.08 32.472 4.016C32.456 3.968 32.456 3.92 32.456 3.888C32.456 3.808 32.504 3.776 32.584 3.776C32.712 3.776 33.048 3.84 33.288 3.936C33.336 3.952 33.4 3.984 33.432 4C35.112 3.872 36.408 3.808 37.72 3.76C38.088 3.744 38.184 3.712 38.456 3.552C38.68 3.616 38.872 3.696 39.224 3.952C39.544 4.192 39.64 4.32 39.64 4.448C39.64 4.576 39.544 4.704 39.448 4.784C39.4 4.832 39.368 4.88 39.352 4.96L39.656 4.944C40.104 4.928 40.376 4.848 40.696 4.704C41.64 4.848 42.264 5.168 42.264 5.44C42.264 5.68 42.072 5.728 41.816 5.728H40.072C39.784 5.728 39.48 5.744 39.176 5.76C39.08 6.24 38.984 6.656 38.888 7.024C38.792 7.36 38.584 7.536 38.248 7.536C38.008 7.536 37.832 7.408 37.72 7.168C36.04 7.216 34.76 7.312 33.352 7.44C33.048 7.472 32.792 7.552 32.648 7.616C32.584 7.648 32.472 7.696 32.392 7.696C32.296 7.696 32.184 7.632 31.896 7.312C31.736 7.152 31.672 7.056 31.672 6.96C31.672 6.896 31.72 6.8 31.784 6.752C31.88 6.672 31.96 6.576 32.056 6.272ZM35.288 4.592C34.744 4.624 34.2 4.688 33.656 4.72C33.624 4.88 33.56 5.072 33.496 5.296C34.072 5.248 34.648 5.216 35.224 5.168C35.272 4.928 35.288 4.784 35.288 4.592ZM38.104 5.008L38.2 4.464C37.528 4.48 36.904 4.512 36.28 4.528C36.392 4.624 36.424 4.72 36.424 4.816C36.424 4.848 36.424 4.864 36.408 4.928C36.392 4.992 36.376 5.04 36.36 5.104C36.952 5.072 37.528 5.04 38.104 5.008ZM37.848 6.416L37.976 5.808C37.368 5.824 36.76 5.856 36.168 5.904C36.104 6.096 36.056 6.304 35.992 6.496C36.616 6.464 37.224 6.448 37.848 6.416ZM34.936 6.576C34.984 6.368 35.032 6.176 35.064 5.968C34.472 6.016 33.864 6.064 33.256 6.112C33.208 6.304 33.144 6.512 33.08 6.72C33.704 6.656 34.312 6.608 34.936 6.576ZM35.048 2.32V2.224C35.032 1.632 34.952 1.296 34.824 1.088C34.744 0.943999 34.712 0.848 34.712 0.735999C34.712 0.655999 34.792 0.608 34.984 0.608C35.176 0.608 35.816 0.719999 36.36 0.959999C36.664 1.104 36.76 1.232 36.76 1.36C36.76 1.488 36.68 1.6 36.584 1.728C36.472 1.888 36.44 2.016 36.424 2.224C37.56 2.16 38.664 2.112 39.752 2.08C40.344 2.064 40.632 2 40.952 1.872C41.192 1.952 41.544 2.144 42.008 2.528C42.456 2.912 42.68 3.2 42.68 3.392C42.68 3.696 42.504 3.808 42.056 3.968C41.432 4.192 40.456 4.432 40.168 4.432C40.072 4.432 39.992 4.4 39.992 4.304C39.992 4.272 40.008 4.192 40.056 4.112C40.264 3.808 40.456 3.424 40.616 3.072C37.176 3.12 34.36 3.248 31.096 3.648C31.016 4.976 30.504 5.344 29.96 5.344C29.624 5.344 29.288 5.024 29.288 4.64C29.288 4.384 29.368 4.208 29.56 3.952C29.976 3.408 30.216 2.992 30.216 2.32C30.216 2.096 30.264 2.032 30.392 2.032C30.552 2.032 30.792 2.304 30.952 2.672C32.312 2.528 33.688 2.416 35.048 2.32ZM39.144 14.864C38.44 14.304 37.768 13.808 37.128 13.28C37.016 13.2 36.968 13.104 36.968 13.04C36.968 12.944 37.048 12.88 37.176 12.88C37.224 12.88 37.4 12.912 37.56 12.944C38.6 13.136 39.432 13.408 40.056 13.76C40.552 14.032 40.696 14.336 40.696 14.688C40.696 15.04 40.408 15.296 40.04 15.296C39.736 15.296 39.448 15.104 39.144 14.864ZM45.944 7.312V7.088C45.944 6.832 45.944 6.528 45.896 6.336C45.64 6.368 45.368 6.416 45.128 6.448C45.016 6.448 44.904 6.432 44.632 6.048C44.488 5.856 44.44 5.76 44.424 5.68C44.04 5.936 43.624 6.192 43.16 6.432C43.08 6.464 43.016 6.496 42.952 6.496C42.84 6.496 42.76 6.432 42.76 6.32C42.76 6.24 42.808 6.16 42.904 6.064C44.168 4.896 45 3.824 45.672 2.64C45.784 2.432 45.848 2.24 45.848 2.016C45.848 1.92 45.832 1.744 45.784 1.52C45.784 1.408 45.848 1.296 46.024 1.296C46.184 1.296 46.552 1.456 46.968 1.728C47.416 2.016 47.512 2.192 47.512 2.464C47.512 2.512 47.496 2.56 47.48 2.624C47.96 2.72 48.44 2.896 48.888 3.2C49.192 3.408 49.368 3.68 49.368 3.984C49.368 4.336 49.128 4.64 48.792 4.64C48.52 4.64 48.296 4.448 48.056 4.176C47.704 3.744 47.416 3.408 47.096 3.136C46.312 4.064 45.608 4.8 44.712 5.472C45.672 5.376 46.488 5.248 47.032 5.136C47.24 5.088 47.512 5.008 47.752 4.88C48.36 4.992 48.776 5.328 48.776 5.6C48.776 5.856 48.632 5.968 48.36 6C47.944 6.048 47.496 6.112 47.032 6.176C47.224 6.304 47.288 6.432 47.288 6.528C47.288 6.64 47.272 6.736 47.256 6.8C47.24 6.896 47.224 6.976 47.208 7.136L47.464 7.104C47.8 7.056 47.928 6.992 48.12 6.864C48.824 6.976 49.256 7.328 49.256 7.584C49.256 7.856 49.096 7.968 48.6 8.016C48.12 8.064 47.656 8.112 47.176 8.176L47.128 11.536C47.672 11.344 48.232 11.136 48.744 10.928C48.808 10.896 48.856 10.896 48.904 10.896C49.048 10.896 49.144 10.976 49.144 11.072C49.144 11.152 49.08 11.248 48.952 11.344C47.784 12.192 46.456 12.944 44.936 13.632C44.68 13.792 44.472 13.888 44.328 13.888C44.152 13.888 43.992 13.792 43.56 13.264C43.288 12.928 43.224 12.752 43.224 12.592C43.224 12.496 43.288 12.416 43.432 12.416C43.672 12.416 43.912 12.4 44.008 12.384C44.584 12.272 45.256 12.112 45.96 11.904L45.944 8.352C45.304 8.448 44.632 8.56 43.944 8.688C43.784 8.688 43.688 8.64 43.512 8.432C43.224 8.08 43.128 7.92 43.128 7.824C43.128 7.728 43.192 7.696 43.352 7.68C44.248 7.552 45.112 7.424 45.944 7.312ZM52.44 13.04V8.048C52.44 7.792 52.408 7.456 52.344 7.28C52.312 7.2 52.296 7.12 52.28 7.04C51.496 7.12 50.648 7.216 49.784 7.328C49.64 7.328 49.544 7.296 49.4 7.152C49.032 6.768 48.888 6.528 48.888 6.448C48.888 6.384 48.936 6.336 49.064 6.32C50.744 6.144 52.12 6.016 53.432 5.904C53.496 5.696 53.56 5.44 53.64 5.104C52.984 5.168 52.408 5.216 51.736 5.296C51.464 5.328 51.336 5.376 51.128 5.488C51.016 5.552 50.936 5.584 50.808 5.584C50.68 5.584 50.568 5.536 50.152 5.136C50.008 4.992 49.992 4.912 49.992 4.8C49.992 4.704 50.04 4.624 50.168 4.496C50.344 4.32 50.392 4.24 50.456 4.064C50.632 3.552 50.792 2.976 50.856 2.48C50.872 2.336 50.888 2.208 50.888 2.096C50.888 1.84 50.84 1.648 50.712 1.328C50.712 1.136 50.856 1.072 51.032 1.072C51.24 1.072 51.512 1.136 51.992 1.328C52.344 1.472 52.456 1.632 52.456 1.792C52.456 1.904 52.44 1.968 52.312 2.144L52.248 2.336C52.76 2.288 53.192 2.24 53.48 2.208C53.8 2.176 54.04 2.144 54.312 1.936C54.6 2 54.952 2.16 55.336 2.48C55.576 2.672 55.768 2.864 55.768 3.056C55.768 3.216 55.688 3.328 55.56 3.456C55.384 3.632 55.336 3.776 55.24 4.112C55.096 4.64 54.952 5.12 54.744 5.808C54.872 5.808 55.112 5.792 55.304 5.776C55.496 5.76 55.768 5.712 56.04 5.568C56.904 5.744 57.512 6.08 57.512 6.496C57.512 6.752 57.288 6.848 56.952 6.848C56.728 6.832 56.392 6.832 56.04 6.832C55.704 6.832 55.368 6.832 55.128 6.848C54.568 6.88 53.912 6.912 53.176 6.976C53.304 7.04 53.448 7.136 53.592 7.248C53.752 7.344 53.816 7.44 53.816 7.552C53.816 7.68 53.768 7.824 53.752 7.952C53.736 8.064 53.704 8.336 53.704 8.672V9.088L53.784 9.152C54.104 8.864 54.472 8.464 54.744 8.096C54.968 7.792 55.048 7.648 55.048 7.424V7.264C55.048 7.136 55.096 7.056 55.192 7.056C55.352 7.056 55.608 7.136 56.232 7.664C56.52 7.92 56.584 8.064 56.584 8.192C56.584 8.336 56.488 8.448 56.216 8.56C55.544 8.976 54.872 9.296 54.2 9.552C54.76 10.064 55.304 10.512 55.8 10.88C56.104 11.104 56.392 11.28 56.968 11.648C57.192 11.792 57.576 12 57.784 12.112C57.928 12.192 58.024 12.256 58.024 12.352C58.024 12.464 57.96 12.544 57.752 12.592C57.256 12.704 56.568 12.784 56.136 12.784C55.752 12.784 55.576 12.736 55.336 12.416C54.84 11.76 54.296 10.96 53.704 10.112C53.72 11.552 53.752 12.64 53.768 13.056C53.752 13.68 53.672 14.048 53.416 14.432C53.224 14.736 53 14.896 52.84 14.896C52.584 14.896 52.36 14.736 52.136 14.512C51.64 14.08 51.272 13.648 50.952 13.264C50.888 13.184 50.856 13.104 50.856 13.056C50.856 12.944 50.92 12.912 51.032 12.912C51.432 12.976 51.944 13.024 52.44 13.04ZM53.864 4.176C53.928 3.84 54.008 3.456 54.056 3.152C53.352 3.184 52.648 3.248 51.944 3.312C51.832 3.696 51.704 4.064 51.608 4.352C52.408 4.288 53.096 4.224 53.864 4.176ZM45.656 10.832C45.656 11.216 45.4 11.488 45.08 11.488C44.824 11.488 44.568 11.28 44.344 10.88C43.96 10.208 43.752 9.52 43.752 9.344C43.752 9.248 43.8 9.2 43.896 9.2C43.944 9.2 44.008 9.2 44.072 9.232C44.392 9.36 44.856 9.616 45.24 9.984C45.544 10.288 45.656 10.592 45.656 10.832ZM48.328 8.384C48.456 8.384 48.664 8.464 49.08 8.8C49.368 9.024 49.416 9.168 49.416 9.28C49.416 9.408 49.336 9.52 49.192 9.648C48.76 10.16 48.424 10.48 47.896 10.864C47.784 10.944 47.688 10.976 47.624 10.976C47.528 10.976 47.48 10.928 47.48 10.816C47.48 10.768 47.496 10.704 47.528 10.624C47.8 10.048 47.96 9.584 48.072 9.136C48.104 9.008 48.12 8.816 48.12 8.704C48.12 8.496 48.184 8.384 48.328 8.384ZM51.224 8.368C51.592 8.64 51.768 8.896 51.768 9.2C51.768 9.568 51.528 9.824 51.144 9.824C50.936 9.824 50.664 9.648 50.392 9.312C50.024 8.848 49.768 8.416 49.624 8.08C49.592 8 49.576 7.936 49.576 7.872C49.576 7.792 49.624 7.76 49.72 7.76C49.784 7.76 49.896 7.776 49.992 7.808C50.36 7.904 50.856 8.096 51.224 8.368ZM52.184 10.464C51.624 11.264 51.176 11.888 50.632 12.464C50.472 12.704 50.312 12.8 50.184 12.8C50.024 12.8 49.816 12.656 49.48 12.208C49.128 11.712 49.08 11.52 49.08 11.424C49.08 11.28 49.16 11.216 49.304 11.216C49.512 11.248 49.624 11.248 49.784 11.248C49.912 11.248 50.056 11.2 50.232 11.12C50.664 10.896 51.256 10.576 51.864 10.16C51.944 10.096 52.024 10.08 52.088 10.08C52.2 10.08 52.264 10.144 52.264 10.24C52.264 10.304 52.248 10.384 52.184 10.464Z" fill="white"/>
</svg>
