<svg width="20" height="20" viewBox="0 0 20 20" fill="none" xmlns="http://www.w3.org/2000/svg">
<g id="Frame" clip-path="url(#clip0_4_372)">
<path id="Vector" d="M10.4167 0.625C5.12167 0.625 0.833332 4.91333 0.833332 10.2083C0.833332 14.4492 3.57667 18.0308 7.38583 19.3C7.865 19.3842 8.04417 19.0967 8.04417 18.845C8.04417 18.6175 8.0325 17.8633 8.0325 17.06C5.625 17.5033 5.0025 16.4733 4.81083 15.935C4.7025 15.6592 4.23583 14.8083 3.8275 14.5808C3.4925 14.4008 3.01333 13.9575 3.81583 13.9458C4.57083 13.9342 5.11 14.6408 5.29 14.9283C6.1525 16.3783 7.53 15.97 8.08083 15.7183C8.16417 15.0958 8.41583 14.6767 8.69167 14.4367C6.55917 14.1975 4.33167 13.3708 4.33167 9.705C4.33167 8.66333 4.7025 7.80083 5.31333 7.13C5.2175 6.89 4.8825 5.9075 5.40917 4.59C5.40917 4.59 6.21167 4.33833 8.045 5.5725C8.81167 5.35667 9.62583 5.24917 10.4408 5.24917C11.255 5.24917 12.07 5.3575 12.8367 5.5725C14.67 4.32667 15.4717 4.59 15.4717 4.59C15.9992 5.9075 15.6633 6.89 15.5675 7.13C16.1783 7.80083 16.55 8.65083 16.55 9.705C16.55 13.3825 14.31 14.1967 12.1775 14.4367C12.525 14.7367 12.8242 15.3117 12.8242 16.21C12.8242 17.4917 12.8125 18.5217 12.8125 18.845C12.8125 19.0967 12.9925 19.3967 13.4708 19.3008C17.2575 18.0308 20 14.4367 20 10.2083C20 4.91333 15.7117 0.625 10.4167 0.625Z" fill="white"/>
</g>
<defs>
<clipPath id="clip0_4_372">
<rect width="20" height="20" fill="white"/>
</clipPath>
</defs>
</svg>
