<svg width="10" height="10" viewBox="0 0 10 10" fill="none" xmlns="http://www.w3.org/2000/svg">
<path id="Vector" fill-rule="evenodd" clip-rule="evenodd" d="M0.172514 9.8272C0.0622487 9.7169 0.000305176 9.56733 0.000305176 9.41136C0.000305176 9.2554 0.0622487 9.10582 0.172514 8.99553L7.99169 1.17635H2.94163C2.78564 1.17635 2.63604 1.11438 2.52573 1.00407C2.41543 0.893771 2.35346 0.744167 2.35346 0.588173C2.35346 0.43218 2.41543 0.282576 2.52573 0.172272C2.63604 0.0619682 2.78564 0 2.94163 0H9.41154C9.56754 0 9.71714 0.0619682 9.82744 0.172272C9.93775 0.282576 9.99972 0.43218 9.99972 0.588173V7.05808C9.99972 7.21407 9.93775 7.36368 9.82744 7.47398C9.71714 7.58429 9.56754 7.64626 9.41154 7.64626C9.25555 7.64626 9.10594 7.58429 8.99564 7.47398C8.88534 7.36368 8.82337 7.21407 8.82337 7.05808V2.00802L1.00537 9.8272C0.950732 9.88198 0.885826 9.92543 0.814369 9.95509C0.742911 9.98474 0.666306 10 0.588941 10C0.511576 10 0.434971 9.98474 0.363513 9.95509C0.292056 9.92543 0.22715 9.88198 0.172514 9.8272Z" fill="white"/>
</svg>
